<svg xmlns="http://www.w3.org/2000/svg" xmlns:xlink="http://www.w3.org/1999/xlink" version="1.0" x="0" y="0" width="2400" height="462.5948733348666" viewBox="54.77059875488281 102.78977905273437 230.45880249023438 44.42044189453125" preserveAspectRatio="xMidYMid meet" color-interpolation-filters="sRGB"><g><defs><linearGradient id="92" x1="0%" y1="0%" x2="100%" y2="0%"><stop offset="0%" stop-color="#fa71cd"></stop> <stop offset="100%" stop-color="#9b59b6"></stop></linearGradient><linearGradient id="93" x1="0%" y1="0%" x2="100%" y2="0%"><stop offset="0%" stop-color="#f9d423"></stop> <stop offset="100%" stop-color="#f83600"></stop></linearGradient><linearGradient id="94" x1="0%" y1="0%" x2="100%" y2="0%"><stop offset="0%" stop-color="#0064d2"></stop> <stop offset="100%" stop-color="#1cb0f6"></stop></linearGradient><linearGradient id="95" x1="0%" y1="0%" x2="100%" y2="0%"><stop offset="0%" stop-color="#f00978"></stop> <stop offset="100%" stop-color="#3f51b1"></stop></linearGradient><linearGradient id="96" x1="0%" y1="0%" x2="100%" y2="0%"><stop offset="0%" stop-color="#7873f5"></stop> <stop offset="100%" stop-color="#ec77ab"></stop></linearGradient><linearGradient id="97" x1="0%" y1="0%" x2="100%" y2="0%"><stop offset="0%" stop-color="#f9d423"></stop> <stop offset="100%" stop-color="#e14fad"></stop></linearGradient><linearGradient id="98" x1="0%" y1="0%" x2="100%" y2="0%"><stop offset="0%" stop-color="#009efd"></stop> <stop offset="100%" stop-color="#2af598"></stop></linearGradient><linearGradient id="99" x1="0%" y1="0%" x2="100%" y2="0%"><stop offset="0%" stop-color="#ffcc00"></stop> <stop offset="100%" stop-color="#00b140"></stop></linearGradient><linearGradient id="100" x1="0%" y1="0%" x2="100%" y2="0%"><stop offset="0%" stop-color="#d51007"></stop> <stop offset="100%" stop-color="#ff8177"></stop></linearGradient><linearGradient id="102" x1="0%" y1="0%" x2="100%" y2="0%"><stop offset="0%" stop-color="#a2b6df"></stop> <stop offset="100%" stop-color="#0c3483"></stop></linearGradient><linearGradient id="103" x1="0%" y1="0%" x2="100%" y2="0%"><stop offset="0%" stop-color="#7ac5d8"></stop> <stop offset="100%" stop-color="#eea2a2"></stop></linearGradient><linearGradient id="104" x1="0%" y1="0%" x2="100%" y2="0%"><stop offset="0%" stop-color="#00ecbc"></stop> <stop offset="100%" stop-color="#007adf"></stop></linearGradient><linearGradient id="105" x1="0%" y1="0%" x2="100%" y2="0%"><stop offset="0%" stop-color="#b88746"></stop> <stop offset="100%" stop-color="#fdf5a6"></stop></linearGradient></defs><g fill="#0a0619" class="basesvg" transform="translate(57.029998779296875,105.04917907714844)"><g fill-rule="" class="tp-name" transform="translate(0,0)"><g transform="scale(1)"><g><path d="M22.92-25.74L3.52-25.74Q3.03-25.74 2.67-25.38L2.67-25.38Q2.33-25.04 2.33-24.53L2.33-24.53 2.33-1.18Q2.33-0.7 2.67-0.36L2.67-0.36Q3.03 0 3.52 0L3.52 0 5.09 0Q5.6 0 5.94-0.36L5.94-0.36Q6.3-0.7 6.3-1.18L6.3-1.18 6.3-20.59Q6.3-21.07 6.64-21.41L6.64-21.41Q6.99-21.77 7.48-21.77L7.48-21.77 10.06-21.77Q10.55-21.77 10.89-21.41L10.89-21.41Q11.24-21.07 11.24-20.59L11.24-20.59 11.24-11.09Q11.24-10.58 11.58-10.25L11.58-10.25Q11.94-9.89 12.43-9.89L12.43-9.89 14.01-9.89Q14.49-9.89 14.85-10.25L14.85-10.25Q15.19-10.58 15.19-11.09L15.19-11.09 15.19-20.59Q15.19-21.07 15.55-21.41L15.55-21.41Q15.89-21.77 16.37-21.77L16.37-21.77 18.95-21.77Q19.44-21.77 19.8-21.41L19.8-21.41Q20.13-21.07 20.13-20.59L20.13-20.59 20.13-1.18Q20.13-0.7 20.49-0.36L20.49-0.36Q20.83 0 21.34 0L21.34 0 22.92 0Q23.41 0 23.74-0.36L23.74-0.36Q24.1-0.7 24.1-1.18L24.1-1.18 24.1-24.53Q24.1-25.04 23.74-25.38L23.74-25.38Q23.41-25.74 22.92-25.74L22.92-25.74ZM33.78-24.76L29.1-1.73Q29.01-1.24 29.31-0.83L29.31-0.83Q29.59-0.41 30.1-0.32L30.1-0.32 31.75-0.02Q32.26 0.08 32.69-0.21L32.69-0.21Q33.13-0.49 33.24-0.98L33.24-0.98 37.07-19.91Q37.17-20.4 37.69-20.4L37.69-20.4Q38.22-20.4 38.31-19.91L38.31-19.91 42.15-0.98Q42.24-0.49 42.68-0.21L42.68-0.21Q43.11 0.08 43.63-0.02L43.63-0.02 44.91-0.39Q45.44-0.49 45.72-0.9L45.72-0.9Q46.02-1.3 45.91-1.79L45.91-1.79 41.6-24.76Q41.42-25.72 40.36-25.72L40.36-25.72 35.02-25.72Q33.97-25.72 33.78-24.76L33.78-24.76ZM64.8-24.53L64.8-8.54Q64.8-8.29 64.58-8.23L64.58-8.23Q64.35-8.18 64.24-8.38L64.24-8.38 55.23-25.1Q54.91-25.74 54.2-25.74L54.2-25.74 52.13-25.74Q51.64-25.74 51.29-25.38L51.29-25.38Q50.95-25.04 50.95-24.53L50.95-24.53 50.95-1.18Q50.95-0.7 51.29-0.36L51.29-0.36Q51.64 0 52.13 0L52.13 0 53.71 0Q54.22 0 54.56-0.36L54.56-0.36Q54.91-0.7 54.91-1.18L54.91-1.18 54.91-17.2Q54.91-17.43 55.12-17.48L55.12-17.48Q55.35-17.54 55.46-17.33L55.46-17.33 64.47-0.62Q64.8 0 65.52 0L65.52 0 67.57 0Q68.06 0 68.41-0.36L68.41-0.36Q68.75-0.7 68.75-1.18L68.75-1.18 68.75-24.53Q68.75-25.04 68.41-25.38L68.41-25.38Q68.06-25.74 67.57-25.74L67.57-25.74 65.99-25.74Q65.5-25.74 65.14-25.38L65.14-25.38Q64.8-25.04 64.8-24.53L64.8-24.53ZM89.24-24.53L89.24-16.04Q89.24-15.55 88.89-15.19L88.89-15.19Q88.55-14.85 88.06-14.85L88.06-14.85 80.54-14.85Q80.05-14.85 79.69-15.19L79.69-15.19Q79.36-15.55 79.36-16.04L79.36-16.04 79.36-24.53Q79.36-25.04 79-25.38L79-25.38Q78.66-25.74 78.15-25.74L78.15-25.74 76.57-25.74Q76.08-25.74 75.73-25.38L75.73-25.38Q75.39-25.04 75.39-24.53L75.39-24.53 75.39-1.18Q75.39-0.7 75.73-0.36L75.73-0.36Q76.08 0 76.57 0L76.57 0 78.15 0Q78.66 0 79-0.36L79-0.36Q79.36-0.7 79.36-1.18L79.36-1.18 79.36-9.7Q79.36-10.19 79.69-10.53L79.69-10.53Q80.05-10.89 80.54-10.89L80.54-10.89 88.06-10.89Q88.55-10.89 88.89-10.53L88.89-10.53Q89.24-10.19 89.24-9.7L89.24-9.7 89.24-1.18Q89.24-0.7 89.58-0.36L89.58-0.36Q89.94 0 90.43 0L90.43 0 92.01 0Q92.5 0 92.85-0.36L92.85-0.36Q93.19-0.7 93.19-1.18L93.19-1.18 93.19-24.53Q93.19-25.04 92.85-25.38L92.85-25.38Q92.5-25.74 92.01-25.74L92.01-25.74 90.43-25.74Q89.94-25.74 89.58-25.38L89.58-25.38Q89.24-25.04 89.24-24.53L89.24-24.53ZM116-3.97L100.56-3.97Q100.07-3.97 99.73-3.61L99.73-3.61Q99.38-3.27 99.38-2.76L99.38-2.76 99.38-1.18Q99.38-0.7 99.73-0.36L99.73-0.36Q100.07 0 100.56 0L100.56 0 116 0Q116.49 0 116.84-0.36L116.84-0.36Q117.18-0.7 117.18-1.18L117.18-1.18 117.18-2.76Q117.18-3.27 116.84-3.61L116.84-3.61Q116.49-3.97 116-3.97L116-3.97ZM116-14.85L100.56-14.85Q100.07-14.85 99.73-14.49L99.73-14.49Q99.38-14.16 99.38-13.65L99.38-13.65 99.38-12.07Q99.38-11.58 99.73-11.22L99.73-11.22Q100.07-10.89 100.56-10.89L100.56-10.89 116-10.89Q116.49-10.89 116.84-11.22L116.84-11.22Q117.18-11.58 117.18-12.07L117.18-12.07 117.18-13.65Q117.18-14.16 116.84-14.49L116.84-14.49Q116.49-14.85 116-14.85L116-14.85ZM116-25.74L100.56-25.74Q100.07-25.74 99.73-25.38L99.73-25.38Q99.38-25.04 99.38-24.53L99.38-24.53 99.38-22.95Q99.38-22.47 99.73-22.11L99.73-22.11Q100.07-21.77 100.56-21.77L100.56-21.77 116-21.77Q116.49-21.77 116.84-22.11L116.84-22.11Q117.18-22.47 117.18-22.95L117.18-22.95 117.18-24.53Q117.18-25.04 116.84-25.38L116.84-25.38Q116.49-25.74 116-25.74L116-25.74ZM128.69-22.26L128.69-25.23Q128.69-25.74 128.18-25.74L128.18-25.74 123.23-25.74Q122.75-25.74 122.75-25.23L122.75-25.23 122.75-22.26Q122.75-21.77 123.23-21.77L123.23-21.77Q123.74-21.77 123.74-21.28L123.74-21.28 123.74-4.46Q123.74-3.97 123.23-3.97L123.23-3.97Q122.75-3.97 122.75-3.46L122.75-3.46 122.75-0.49Q122.75 0 123.23 0L123.23 0 128.18 0Q128.69 0 128.69-0.49L128.69-0.49 128.69-3.46Q128.69-3.97 128.18-3.97L128.18-3.97Q127.69-3.97 127.69-4.46L127.69-4.46 127.69-21.28Q127.69-21.77 128.18-21.77L128.18-21.77Q128.69-21.77 128.69-22.26L128.69-22.26ZM155.46-25.74L136.06-25.74Q135.57-25.74 135.21-25.38L135.21-25.38Q134.87-25.04 134.87-24.53L134.87-24.53 134.87-1.18Q134.87-0.7 135.21-0.36L135.21-0.36Q135.57 0 136.06 0L136.06 0 137.64 0Q138.14 0 138.48-0.36L138.48-0.36Q138.84-0.7 138.84-1.18L138.84-1.18 138.84-20.59Q138.84-21.07 139.18-21.41L139.18-21.41Q139.53-21.77 140.02-21.77L140.02-21.77 142.6-21.77Q143.09-21.77 143.43-21.41L143.43-21.41Q143.78-21.07 143.78-20.59L143.78-20.59 143.78-1.18Q143.78-0.7 144.12-0.36L144.12-0.36Q144.48 0 144.97 0L144.97 0 146.55 0Q147.04 0 147.39-0.36L147.39-0.36Q147.73-0.7 147.73-1.18L147.73-1.18 147.73-20.59Q147.73-21.07 148.09-21.41L148.09-21.41Q148.43-21.77 148.92-21.77L148.92-21.77 151.49-21.77Q151.98-21.77 152.34-21.41L152.34-21.41Q152.68-21.07 152.68-20.59L152.68-20.59 152.68-1.18Q152.68-0.7 153.03-0.36L153.03-0.36Q153.37 0 153.88 0L153.88 0 155.46 0Q155.95 0 156.28-0.36L156.28-0.36Q156.64-0.7 156.64-1.18L156.64-1.18 156.64-24.53Q156.64-25.04 156.28-25.38L156.28-25.38Q155.95-25.74 155.46-25.74L155.46-25.74ZM186.82-22.95L186.82-24.53Q186.82-25.04 186.48-25.38L186.48-25.38Q186.12-25.74 185.63-25.74L185.63-25.74 170.2-25.74Q169.71-25.74 169.35-25.38L169.35-25.38Q169.01-25.04 169.01-24.53L169.01-24.53 169.01-22.95Q169.01-22.47 169.35-22.11L169.35-22.11Q169.71-21.77 170.2-21.77L170.2-21.77 174.75-21.77Q175.24-21.77 175.59-21.41L175.59-21.41Q175.93-21.07 175.93-20.59L175.93-20.59 175.93-1.18Q175.93-0.7 176.29-0.36L176.29-0.36Q176.63 0 177.13 0L177.13 0 178.71 0Q179.2 0 179.54-0.36L179.54-0.36Q179.9-0.7 179.9-1.18L179.9-1.18 179.9-20.59Q179.9-21.07 180.24-21.41L180.24-21.41Q180.59-21.77 181.08-21.77L181.08-21.77 185.63-21.77Q186.12-21.77 186.48-22.11L186.48-22.11Q186.82-22.47 186.82-22.95L186.82-22.95ZM193.72-24.76L189.03-1.73Q188.94-1.24 189.24-0.83L189.24-0.83Q189.52-0.41 190.03-0.32L190.03-0.32 191.69-0.02Q192.19 0.08 192.63-0.21L192.63-0.21Q193.06-0.49 193.17-0.98L193.17-0.98 197.01-19.91Q197.1-20.4 197.63-20.4L197.63-20.4Q198.15-20.4 198.25-19.91L198.25-19.91 202.08-0.98Q202.18-0.49 202.61-0.21L202.61-0.21Q203.04 0.08 203.57-0.02L203.57-0.02 204.85-0.39Q205.37-0.49 205.65-0.9L205.65-0.9Q205.95-1.3 205.84-1.79L205.84-1.79 201.54-24.76Q201.35-25.72 200.3-25.72L200.3-25.72 194.96-25.72Q193.9-25.72 193.72-24.76L193.72-24.76ZM216.48-12.92L209.85-1.79Q209.49-1.2 209.83-0.6L209.83-0.6Q210.17 0 210.86 0L210.86 0 212.7 0Q213.38 0 213.74-0.58L213.74-0.58 218.48-8.52Q218.64-8.8 218.98-8.8L218.98-8.8Q219.32-8.8 219.49-8.52L219.49-8.52 224.21-0.58Q224.55 0 225.22 0L225.22 0 227.07 0Q227.76 0 228.1-0.6L228.1-0.6Q228.44-1.2 228.1-1.79L228.1-1.79 221.46-12.92Q221.3-13.22 221.46-13.54L221.46-13.54 227.71-23.93Q228.06-24.53 227.73-25.14L227.73-25.14Q227.37-25.74 226.69-25.74L226.69-25.74 224.83-25.74Q224.15-25.74 223.81-25.15L223.81-25.15 219.49-17.94Q219.32-17.63 218.98-17.63L218.98-17.63Q218.64-17.63 218.48-17.94L218.48-17.94 214.13-25.15Q213.79-25.74 213.12-25.74L213.12-25.74 211.28-25.74Q210.58-25.74 210.24-25.14L210.24-25.14Q209.9-24.53 210.24-23.93L210.24-23.93 216.48-13.54Q216.67-13.22 216.48-12.92L216.48-12.92Z" transform="translate(-2.3299999237060547, 25.739999771118164)"></path></g> </g></g> <g fill-rule="" class="tp-slogan" fill="#0a0619" transform="translate(41.915000915527344,31.745643615722656)"> <g transform="scale(1, 1)"><g transform="scale(1)"><path d="M2.06-3.20L4.43-3.20L4.06-4.40Q3.84-5.06 3.65-5.72Q3.46-6.37 3.26-7.06L3.26-7.06L3.22-7.06Q3.04-6.37 2.84-5.72Q2.65-5.06 2.44-4.40L2.44-4.40L2.06-3.20ZM5.42 0L4.68-2.40L1.81-2.40L1.06 0L0.04 0L2.70-7.87L3.83-7.87L6.49 0L5.42 0ZM7.61 0L7.61-7.87L8.64-7.87L11.48-2.93L12.34-1.30L12.38-1.30Q12.35-1.90 12.31-2.54Q12.26-3.18 12.26-3.80L12.26-3.80L12.26-7.87L13.21-7.87L13.21 0L12.18 0L9.32-4.96L8.47-6.58L8.42-6.58Q8.47-5.98 8.51-5.36Q8.56-4.74 8.56-4.12L8.56-4.12L8.56 0L7.61 0ZM15.37 0L15.37-7.87L17.34-7.87Q19.16-7.87 20.11-6.86Q21.06-5.86 21.06-3.97L21.06-3.97Q21.06-3.04 20.82-2.30Q20.58-1.56 20.11-1.05Q19.64-0.54 18.96-0.27Q18.28 0 17.39 0L17.39 0L15.37 0ZM16.37-0.82L17.27-0.82Q18.65-0.82 19.34-1.64Q20.03-2.47 20.03-3.97L20.03-3.97Q20.03-5.47 19.34-6.26Q18.65-7.06 17.27-7.06L17.27-7.06L16.37-7.06L16.37-0.82ZM26.16-3.20L28.52-3.20L28.15-4.40Q27.94-5.06 27.74-5.72Q27.55-6.37 27.36-7.06L27.36-7.06L27.31-7.06Q27.13-6.37 26.94-5.72Q26.75-5.06 26.53-4.40L26.53-4.40L26.16-3.20ZM29.52 0L28.78-2.40L25.91-2.40L25.15 0L24.13 0L26.80-7.87L27.92-7.87L30.59 0L29.52 0ZM31.13-3.94L31.13-3.94Q31.13-4.88 31.39-5.64Q31.66-6.40 32.12-6.92Q32.59-7.45 33.23-7.73Q33.88-8.02 34.63-8.02L34.63-8.02Q35.35-8.02 35.89-7.72Q36.43-7.43 36.78-7.04L36.78-7.04L36.22-6.41Q35.90-6.74 35.53-6.94Q35.15-7.14 34.64-7.14L34.64-7.14Q34.08-7.14 33.62-6.92Q33.17-6.70 32.84-6.28Q32.52-5.87 32.34-5.28Q32.16-4.69 32.16-3.96L32.16-3.96Q32.16-3.22 32.33-2.62Q32.51-2.03 32.82-1.61Q33.13-1.19 33.58-0.96Q34.03-0.73 34.60-0.73L34.60-0.73Q35.17-0.73 35.60-0.96Q36.02-1.19 36.41-1.61L36.41-1.61L36.97-1.00Q36.50-0.46 35.92-0.16Q35.33 0.14 34.57 0.14L34.57 0.14Q33.83 0.14 33.20-0.13Q32.57-0.41 32.11-0.93Q31.64-1.45 31.39-2.21Q31.13-2.98 31.13-3.94ZM37.63-3.94L37.63-3.94Q37.63-4.88 37.90-5.64Q38.16-6.40 38.63-6.92Q39.10-7.45 39.74-7.73Q40.38-8.02 41.14-8.02L41.14-8.02Q41.86-8.02 42.40-7.72Q42.94-7.43 43.28-7.04L43.28-7.04L42.72-6.41Q42.41-6.74 42.03-6.94Q41.65-7.14 41.15-7.14L41.15-7.14Q40.58-7.14 40.13-6.92Q39.67-6.70 39.35-6.28Q39.02-5.87 38.84-5.28Q38.66-4.69 38.66-3.96L38.66-3.96Q38.66-3.22 38.84-2.62Q39.01-2.03 39.32-1.61Q39.64-1.19 40.09-0.96Q40.54-0.73 41.10-0.73L41.10-0.73Q41.68-0.73 42.10-0.96Q42.53-1.19 42.91-1.61L42.91-1.61L43.48-1.00Q43.01-0.46 42.42-0.16Q41.83 0.14 41.08 0.14L41.08 0.14Q40.33 0.14 39.70-0.13Q39.07-0.41 38.61-0.93Q38.15-1.45 37.89-2.21Q37.63-2.98 37.63-3.94ZM47.50 0.14L47.50 0.14Q46.75 0.14 46.13-0.14Q45.52-0.43 45.07-0.97Q44.63-1.50 44.38-2.26Q44.14-3.02 44.14-3.97L44.14-3.97Q44.14-4.92 44.38-5.67Q44.63-6.42 45.07-6.94Q45.52-7.46 46.13-7.74Q46.75-8.02 47.50-8.02L47.50-8.02Q48.24-8.02 48.86-7.73Q49.48-7.45 49.93-6.93Q50.38-6.41 50.62-5.66Q50.87-4.91 50.87-3.97L50.87-3.97Q50.87-3.02 50.62-2.26Q50.38-1.50 49.93-0.97Q49.48-0.43 48.86-0.14Q48.24 0.14 47.50 0.14ZM47.50-0.73L47.50-0.73Q48.02-0.73 48.45-0.96Q48.88-1.19 49.18-1.61Q49.49-2.04 49.66-2.63Q49.82-3.23 49.82-3.97L49.82-3.97Q49.82-4.70 49.66-5.29Q49.49-5.88 49.18-6.29Q48.88-6.70 48.45-6.92Q48.02-7.14 47.50-7.14L47.50-7.14Q46.97-7.14 46.54-6.92Q46.12-6.70 45.81-6.29Q45.50-5.88 45.34-5.29Q45.17-4.70 45.17-3.97L45.17-3.97Q45.17-3.23 45.34-2.63Q45.50-2.04 45.81-1.61Q46.12-1.19 46.54-0.96Q46.97-0.73 47.50-0.73ZM52.52-3.25L52.52-7.87L53.52-7.87L53.52-3.23Q53.52-2.52 53.66-2.04Q53.81-1.56 54.05-1.27Q54.30-0.98 54.64-0.86Q54.97-0.73 55.36-0.73L55.36-0.73Q55.75-0.73 56.09-0.86Q56.42-0.98 56.68-1.27Q56.93-1.56 57.07-2.04Q57.22-2.52 57.22-3.23L57.22-3.23L57.22-7.87L58.18-7.87L58.18-3.25Q58.18-2.30 57.96-1.66Q57.74-1.01 57.37-0.61Q56.99-0.20 56.47-0.03Q55.96 0.14 55.36 0.14L55.36 0.14Q54.76 0.14 54.23-0.03Q53.71-0.20 53.33-0.61Q52.96-1.01 52.74-1.66Q52.52-2.30 52.52-3.25L52.52-3.25ZM60.30 0L60.30-7.87L61.33-7.87L64.18-2.93L65.03-1.30L65.08-1.30Q65.04-1.90 65.00-2.54Q64.96-3.18 64.96-3.80L64.96-3.80L64.96-7.87L65.90-7.87L65.90 0L64.87 0L62.02-4.96L61.16-6.58L61.12-6.58Q61.16-5.98 61.21-5.36Q61.25-4.74 61.25-4.12L61.25-4.12L61.25 0L60.30 0ZM69.70 0L69.70-7.03L67.32-7.03L67.32-7.87L73.08-7.87L73.08-7.03L70.70-7.03L70.70 0L69.70 0ZM74.50 0L74.50-7.87L75.49-7.87L75.49 0L74.50 0ZM77.65 0L77.65-7.87L78.68-7.87L81.53-2.93L82.38-1.30L82.43-1.30Q82.39-1.90 82.35-2.54Q82.31-3.18 82.31-3.80L82.31-3.80L82.31-7.87L83.26-7.87L83.26 0L82.22 0L79.37-4.96L78.52-6.58L78.47-6.58Q78.52-5.98 78.56-5.36Q78.60-4.74 78.60-4.12L78.60-4.12L78.60 0L77.65 0ZM84.96-3.94L84.96-3.94Q84.96-4.88 85.23-5.64Q85.50-6.40 85.99-6.92Q86.47-7.45 87.13-7.73Q87.79-8.02 88.58-8.02L88.58-8.02Q89.40-8.02 89.95-7.71Q90.49-7.40 90.84-7.04L90.84-7.04L90.28-6.41Q89.98-6.72 89.59-6.93Q89.20-7.14 88.60-7.14L88.60-7.14Q88.00-7.14 87.52-6.92Q87.04-6.70 86.70-6.28Q86.36-5.87 86.18-5.28Q85.99-4.69 85.99-3.96L85.99-3.96Q85.99-3.22 86.17-2.62Q86.34-2.03 86.67-1.61Q87.00-1.19 87.49-0.96Q87.97-0.73 88.61-0.73L88.61-0.73Q89.03-0.73 89.41-0.86Q89.78-0.98 90.02-1.20L90.02-1.20L90.02-3.25L88.36-3.25L88.36-4.08L90.94-4.08L90.94-0.77Q90.55-0.37 89.92-0.11Q89.29 0.14 88.50 0.14L88.50 0.14Q87.72 0.14 87.07-0.13Q86.42-0.41 85.96-0.93Q85.49-1.45 85.22-2.21Q84.96-2.98 84.96-3.94ZM94.67-1.02L95.27-1.72Q95.69-1.27 96.26-1.00Q96.83-0.73 97.44-0.73L97.44-0.73Q98.22-0.73 98.65-1.09Q99.08-1.44 99.08-2.02L99.08-2.02Q99.08-2.32 98.98-2.53Q98.88-2.74 98.71-2.89Q98.53-3.04 98.29-3.16Q98.05-3.28 97.78-3.41L97.78-3.41L96.65-3.90Q96.37-4.02 96.08-4.19Q95.80-4.36 95.57-4.60Q95.34-4.84 95.20-5.17Q95.05-5.50 95.05-5.93L95.05-5.93Q95.05-6.37 95.24-6.76Q95.42-7.14 95.75-7.42Q96.08-7.70 96.53-7.86Q96.98-8.02 97.52-8.02L97.52-8.02Q98.23-8.02 98.83-7.75Q99.43-7.48 99.85-7.04L99.85-7.04L99.31-6.40Q98.95-6.74 98.51-6.94Q98.08-7.14 97.52-7.14L97.52-7.14Q96.86-7.14 96.46-6.83Q96.06-6.53 96.06-5.99L96.06-5.99Q96.06-5.70 96.17-5.50Q96.29-5.30 96.48-5.15Q96.67-5.00 96.90-4.89Q97.13-4.78 97.37-4.68L97.37-4.68L98.48-4.20Q98.82-4.06 99.12-3.87Q99.42-3.68 99.64-3.44Q99.85-3.19 99.98-2.86Q100.10-2.53 100.10-2.10L100.10-2.10Q100.10-1.63 99.92-1.22Q99.73-0.82 99.38-0.51Q99.04-0.20 98.54-0.03Q98.05 0.14 97.43 0.14L97.43 0.14Q96.60 0.14 95.89-0.17Q95.18-0.48 94.67-1.02L94.67-1.02ZM101.65 0L101.65-7.87L106.19-7.87L106.19-7.03L102.65-7.03L102.65-4.56L105.64-4.56L105.64-3.71L102.65-3.71L102.65-0.85L106.31-0.85L106.31 0L101.65 0ZM108.97-7.07L108.97-4.14L110.29-4.14Q111.22-4.14 111.71-4.52Q112.20-4.90 112.20-5.66L112.20-5.66Q112.20-6.44 111.71-6.76Q111.22-7.07 110.29-7.07L110.29-7.07L108.97-7.07ZM113.42 0L112.30 0L110.40-3.32L108.97-3.32L108.97 0L107.98 0L107.98-7.87L110.44-7.87Q111.04-7.87 111.55-7.76Q112.06-7.64 112.42-7.38Q112.79-7.12 112.99-6.70Q113.20-6.28 113.20-5.66L113.20-5.66Q113.20-4.74 112.72-4.19Q112.24-3.64 111.43-3.43L111.43-3.43L113.42 0ZM116.22 0L113.70-7.87L114.77-7.87L116.03-3.62Q116.24-2.92 116.41-2.32Q116.57-1.72 116.80-1.02L116.80-1.02L116.84-1.02Q117.06-1.72 117.23-2.32Q117.40-2.92 117.60-3.62L117.60-3.62L118.86-7.87L119.88-7.87L117.38 0L116.22 0ZM120.96 0L120.96-7.87L121.96-7.87L121.96 0L120.96 0ZM123.66-3.94L123.66-3.94Q123.66-4.88 123.92-5.64Q124.19-6.40 124.66-6.92Q125.12-7.45 125.77-7.73Q126.41-8.02 127.16-8.02L127.16-8.02Q127.88-8.02 128.42-7.72Q128.96-7.43 129.31-7.04L129.31-7.04L128.75-6.41Q128.44-6.74 128.06-6.94Q127.68-7.14 127.18-7.14L127.18-7.14Q126.61-7.14 126.16-6.92Q125.70-6.70 125.38-6.28Q125.05-5.87 124.87-5.28Q124.69-4.69 124.69-3.96L124.69-3.96Q124.69-3.22 124.87-2.62Q125.04-2.03 125.35-1.61Q125.66-1.19 126.11-0.96Q126.56-0.73 127.13-0.73L127.13-0.73Q127.70-0.73 128.13-0.96Q128.56-1.19 128.94-1.61L128.94-1.61L129.50-1.00Q129.04-0.46 128.45-0.16Q127.86 0.14 127.10 0.14L127.10 0.14Q126.36 0.14 125.73-0.13Q125.10-0.41 124.64-0.93Q124.18-1.45 123.92-2.21Q123.66-2.98 123.66-3.94ZM130.97 0L130.97-7.87L135.50-7.87L135.50-7.03L131.96-7.03L131.96-4.56L134.95-4.56L134.95-3.71L131.96-3.71L131.96-0.85L135.62-0.85L135.62 0L130.97 0ZM136.72-1.02L137.32-1.72Q137.74-1.27 138.31-1.00Q138.88-0.73 139.49-0.73L139.49-0.73Q140.27-0.73 140.70-1.09Q141.13-1.44 141.13-2.02L141.13-2.02Q141.13-2.32 141.03-2.53Q140.93-2.74 140.75-2.89Q140.58-3.04 140.34-3.16Q140.10-3.28 139.82-3.41L139.82-3.41L138.70-3.90Q138.42-4.02 138.13-4.19Q137.84-4.36 137.62-4.60Q137.39-4.84 137.24-5.17Q137.10-5.50 137.10-5.93L137.10-5.93Q137.10-6.37 137.29-6.76Q137.47-7.14 137.80-7.42Q138.13-7.70 138.58-7.86Q139.03-8.02 139.57-8.02L139.57-8.02Q140.28-8.02 140.88-7.75Q141.48-7.48 141.90-7.04L141.90-7.04L141.36-6.40Q141.00-6.74 140.56-6.94Q140.12-7.14 139.57-7.14L139.57-7.14Q138.91-7.14 138.51-6.83Q138.11-6.53 138.11-5.99L138.11-5.99Q138.11-5.70 138.22-5.50Q138.34-5.30 138.53-5.15Q138.72-5.00 138.95-4.89Q139.18-4.78 139.42-4.68L139.42-4.68L140.53-4.20Q140.87-4.06 141.17-3.87Q141.47-3.68 141.68-3.44Q141.90-3.19 142.03-2.86Q142.15-2.53 142.15-2.10L142.15-2.10Q142.15-1.63 141.97-1.22Q141.78-0.82 141.43-0.51Q141.08-0.20 140.59-0.03Q140.10 0.14 139.48 0.14L139.48 0.14Q138.65 0.14 137.94-0.17Q137.23-0.48 136.72-1.02L136.72-1.02Z" transform="translate(-0.036000000000000004, 8.016)"></path></g></g></g></g><defs v-gra="od"></defs></g></svg>